<svg width="167" height="22" viewBox="0 0 167 22" fill="none" xmlns="http://www.w3.org/2000/svg">
<path d="M11.4277 15.873C11.4277 14.998 11.1178 14.3236 10.498 13.8496C9.88737 13.3757 8.77995 12.8971 7.17578 12.4141C5.57161 11.931 4.29557 11.3932 3.34766 10.8008C1.53385 9.66146 0.626953 8.17578 0.626953 6.34375C0.626953 4.73958 1.27865 3.41797 2.58203 2.37891C3.89453 1.33984 5.5944 0.820312 7.68164 0.820312C9.06706 0.820312 10.3021 1.07552 11.3867 1.58594C12.4714 2.09635 13.3236 2.82552 13.9434 3.77344C14.5632 4.71224 14.873 5.75586 14.873 6.9043H11.4277C11.4277 5.86523 11.0996 5.05404 10.4434 4.4707C9.79622 3.87826 8.86654 3.58203 7.6543 3.58203C6.52409 3.58203 5.64453 3.82357 5.01562 4.30664C4.39583 4.78971 4.08594 5.46419 4.08594 6.33008C4.08594 7.05924 4.42318 7.66992 5.09766 8.16211C5.77214 8.64518 6.88411 9.11914 8.43359 9.58398C9.98307 10.0397 11.2272 10.5638 12.166 11.1562C13.1048 11.7396 13.793 12.4141 14.2305 13.1797C14.668 13.9362 14.8867 14.8249 14.8867 15.8457C14.8867 17.5046 14.2487 18.8262 12.9727 19.8105C11.7057 20.7858 9.98307 21.2734 7.80469 21.2734C6.36458 21.2734 5.03841 21.0091 3.82617 20.4805C2.62305 19.9427 1.68424 19.2044 1.00977 18.2656C0.344401 17.3268 0.0117188 16.2331 0.0117188 14.9844H3.4707C3.4707 16.1146 3.8444 16.9896 4.5918 17.6094C5.33919 18.2292 6.41016 18.5391 7.80469 18.5391C9.00781 18.5391 9.91016 18.2975 10.5117 17.8145C11.1224 17.3223 11.4277 16.6751 11.4277 15.873ZM33.8086 11.5664C33.8086 13.5169 33.4714 15.2305 32.7969 16.707C32.1224 18.1745 31.1562 19.3047 29.8984 20.0977C28.6497 20.8815 27.2096 21.2734 25.5781 21.2734C23.9648 21.2734 22.5247 20.8815 21.2578 20.0977C20 19.3047 19.0247 18.179 18.332 16.7207C17.6484 15.2624 17.3021 13.5807 17.293 11.6758V10.5547C17.293 8.61328 17.6348 6.89974 18.3184 5.41406C19.0111 3.92839 19.9818 2.79362 21.2305 2.00977C22.4883 1.2168 23.9284 0.820312 25.5508 0.820312C27.1732 0.820312 28.6087 1.21224 29.8574 1.99609C31.1152 2.77083 32.0859 3.89193 32.7695 5.35938C33.4531 6.81771 33.7995 8.51758 33.8086 10.459V11.5664ZM30.3496 10.5273C30.3496 8.32161 29.9303 6.63086 29.0918 5.45508C28.2624 4.2793 27.082 3.69141 25.5508 3.69141C24.056 3.69141 22.8848 4.2793 22.0371 5.45508C21.1986 6.62174 20.7702 8.27604 20.752 10.418V11.5664C20.752 13.7539 21.1758 15.4447 22.0234 16.6387C22.8802 17.8327 24.0651 18.4297 25.5781 18.4297C27.1094 18.4297 28.2852 17.8464 29.1055 16.6797C29.9349 15.513 30.3496 13.8086 30.3496 11.5664V10.5273ZM40.7129 18.2383H49.75V21H37.2539V1.09375H40.7129V18.2383ZM68.1934 21H64.7344L55.8613 6.87695V21H52.4023V1.09375H55.8613L64.7617 15.2715V1.09375H68.1934V21Z" fill="#F8BB10"/>
<path d="M75.4941 21H72.1719V6.20703H75.4941V21ZM71.9668 2.36523C71.9668 1.85482 72.1263 1.43099 72.4453 1.09375C72.7734 0.75651 73.2383 0.587891 73.8398 0.587891C74.4414 0.587891 74.9062 0.75651 75.2344 1.09375C75.5625 1.43099 75.7266 1.85482 75.7266 2.36523C75.7266 2.86654 75.5625 3.28581 75.2344 3.62305C74.9062 3.95117 74.4414 4.11523 73.8398 4.11523C73.2383 4.11523 72.7734 3.95117 72.4453 3.62305C72.1263 3.28581 71.9668 2.86654 71.9668 2.36523ZM87.416 16.9805C87.416 16.388 87.1699 15.9368 86.6777 15.627C86.1947 15.3171 85.388 15.0436 84.2578 14.8066C83.1276 14.5697 82.1842 14.2689 81.4277 13.9043C79.7689 13.1022 78.9395 11.9401 78.9395 10.418C78.9395 9.14193 79.4772 8.07552 80.5527 7.21875C81.6283 6.36198 82.9954 5.93359 84.6543 5.93359C86.4225 5.93359 87.849 6.37109 88.9336 7.24609C90.0273 8.12109 90.5742 9.25586 90.5742 10.6504H87.252C87.252 10.0124 87.015 9.48372 86.541 9.06445C86.0671 8.63607 85.4382 8.42188 84.6543 8.42188C83.9251 8.42188 83.3281 8.59049 82.8633 8.92773C82.4076 9.26497 82.1797 9.71615 82.1797 10.2812C82.1797 10.7917 82.3939 11.1882 82.8223 11.4707C83.2507 11.7533 84.1165 12.0404 85.4199 12.332C86.7233 12.6146 87.7441 12.9564 88.4824 13.3574C89.2298 13.7493 89.7812 14.2233 90.1367 14.7793C90.5013 15.3353 90.6836 16.0098 90.6836 16.8027C90.6836 18.1335 90.1322 19.2135 89.0293 20.043C87.9264 20.8633 86.4818 21.2734 84.6953 21.2734C83.4831 21.2734 82.403 21.0547 81.4551 20.6172C80.5072 20.1797 79.7689 19.5781 79.2402 18.8125C78.7116 18.0469 78.4473 17.222 78.4473 16.3379H81.6738C81.7194 17.1217 82.0156 17.7279 82.5625 18.1562C83.1094 18.5755 83.834 18.7852 84.7363 18.7852C85.6113 18.7852 86.2767 18.6211 86.7324 18.293C87.1882 17.9557 87.416 17.5182 87.416 16.9805ZM96.8633 7.82031C97.9479 6.5625 99.3197 5.93359 100.979 5.93359C104.132 5.93359 105.732 7.73372 105.777 11.334V21H102.455V11.457C102.455 10.4362 102.232 9.71615 101.785 9.29688C101.348 8.86849 100.701 8.6543 99.8438 8.6543C98.513 8.6543 97.5195 9.24674 96.8633 10.4316V21H93.541V0H96.8633V7.82031ZM117.439 16.9805C117.439 16.388 117.193 15.9368 116.701 15.627C116.218 15.3171 115.411 15.0436 114.281 14.8066C113.151 14.5697 112.208 14.2689 111.451 13.9043C109.792 13.1022 108.963 11.9401 108.963 10.418C108.963 9.14193 109.501 8.07552 110.576 7.21875C111.652 6.36198 113.019 5.93359 114.678 5.93359C116.446 5.93359 117.872 6.37109 118.957 7.24609C120.051 8.12109 120.598 9.25586 120.598 10.6504H117.275C117.275 10.0124 117.038 9.48372 116.564 9.06445C116.09 8.63607 115.462 8.42188 114.678 8.42188C113.949 8.42188 113.352 8.59049 112.887 8.92773C112.431 9.26497 112.203 9.71615 112.203 10.2812C112.203 10.7917 112.417 11.1882 112.846 11.4707C113.274 11.7533 114.14 12.0404 115.443 12.332C116.747 12.6146 117.768 12.9564 118.506 13.3574C119.253 13.7493 119.805 14.2233 120.16 14.7793C120.525 15.3353 120.707 16.0098 120.707 16.8027C120.707 18.1335 120.156 19.2135 119.053 20.043C117.95 20.8633 116.505 21.2734 114.719 21.2734C113.507 21.2734 112.426 21.0547 111.479 20.6172C110.531 20.1797 109.792 19.5781 109.264 18.8125C108.735 18.0469 108.471 17.222 108.471 16.3379H111.697C111.743 17.1217 112.039 17.7279 112.586 18.1562C113.133 18.5755 113.857 18.7852 114.76 18.7852C115.635 18.7852 116.3 18.6211 116.756 18.293C117.212 17.9557 117.439 17.5182 117.439 16.9805ZM126.887 7.82031C127.971 6.5625 129.343 5.93359 131.002 5.93359C134.156 5.93359 135.755 7.73372 135.801 11.334V21H132.479V11.457C132.479 10.4362 132.255 9.71615 131.809 9.29688C131.371 8.86849 130.724 8.6543 129.867 8.6543C128.536 8.6543 127.543 9.24674 126.887 10.4316V21H123.564V0H126.887V7.82031ZM143.977 14.6562L142.5 16.1738V21H139.178V0H142.5V12.1133L143.539 10.8145L147.627 6.20703H151.619L146.123 12.373L152.207 21H148.365L143.977 14.6562ZM162.639 21C162.493 20.7174 162.365 20.2572 162.256 19.6191C161.199 20.722 159.904 21.2734 158.373 21.2734C156.887 21.2734 155.675 20.8496 154.736 20.002C153.798 19.1543 153.328 18.1061 153.328 16.8574C153.328 15.2806 153.911 14.0729 155.078 13.2344C156.254 12.3867 157.931 11.9629 160.109 11.9629H162.146V10.9922C162.146 10.2266 161.932 9.61589 161.504 9.16016C161.076 8.69531 160.424 8.46289 159.549 8.46289C158.792 8.46289 158.173 8.6543 157.689 9.03711C157.206 9.41081 156.965 9.88932 156.965 10.4727H153.643C153.643 9.66146 153.911 8.90495 154.449 8.20312C154.987 7.49219 155.716 6.9362 156.637 6.53516C157.566 6.13411 158.601 5.93359 159.74 5.93359C161.472 5.93359 162.853 6.37109 163.883 7.24609C164.913 8.11198 165.441 9.33333 165.469 10.9102V17.582C165.469 18.9128 165.656 19.9746 166.029 20.7676V21H162.639ZM158.988 18.6074C159.645 18.6074 160.26 18.4479 160.834 18.1289C161.417 17.8099 161.855 17.3815 162.146 16.8438V14.0547H160.355C159.125 14.0547 158.2 14.2689 157.58 14.6973C156.96 15.1257 156.65 15.7318 156.65 16.5156C156.65 17.1536 156.86 17.6641 157.279 18.0469C157.708 18.4206 158.277 18.6074 158.988 18.6074Z" fill="#939393"/>
</svg>
